<!DOCTYPE svg PUBLIC "-//W3C//DTD SVG 1.1//EN" "http://www.w3.org/Graphics/SVG/1.1/DTD/svg11.dtd">
<!-- Uploaded to: SVG Repo, www.svgrepo.com, Transformed by: SVG Repo Mixer Tools -->
<svg width="800px" height="800px" viewBox="0 0 24 24" fill="none" xmlns="http://www.w3.org/2000/svg">
<g id="SVGRepo_bgCarrier" stroke-width="0"/>
<g id="SVGRepo_tracerCarrier" stroke-linecap="round" stroke-linejoin="round" stroke="#CCCCCC" stroke-width="0.24000000000000005"/>
<g id="SVGRepo_iconCarrier"> <path d="M3 3h18v18H3V3zm2 2v2h2V5H5zm4 0v6h6V5H9zm8 0v2h2V5h-2zm2 4h-2v2h2V9zm0 4h-2v2h2v-2zm0 4h-2v2h2v-2zm-4 2v-6H9v6h6zm-8 0v-2H5v2h2zm-2-4h2v-2H5v2zm0-4h2V9H5v2z" fill="#dbdbdb"/> </g>
</svg>