<svg xmlns:xlink="http://www.w3.org/1999/xlink" xmlns="http://www.w3.org/2000/svg" class="icon" width="100"  height="104" ><defs><symbol viewBox="0 0 100 104" id="subtitle">
<path d=" M 33.28 8.33 C 43.88 8.15 54.49 8.29 65.09 8.26 C 72.91 8.48 81.35 10.16 87.13 15.83 C 92.88 21.61 94.57 30.09 94.74 37.95 C 94.74 48.30 94.79 58.64 94.72 68.98 C 94.40 77.17 92.22 86.13 85.53 91.47 C 78.39 97.23 68.76 97.69 59.99 97.76 C 50.63 97.60 41.26 98.07 31.93 97.45 C 24.84 96.95 17.35 94.89 12.38 89.52 C 7.02 83.79 5.47 75.63 5.26 68.04 C 5.25 58.00 5.24 47.97 5.26 37.93 C 5.44 30.30 7.01 22.13 12.37 16.35 C 17.70 10.67 25.77 8.75 33.28 8.33 M 26.41 15.62 C 22.14 16.59 17.93 18.82 15.50 22.57 C 12.30 27.39 11.65 33.37 11.49 39.01 C 11.52 48.69 11.47 58.38 11.51 68.06 C 11.77 74.64 13.06 82.06 18.42 86.50 C 23.58 90.72 30.57 91.22 36.96 91.48 C 45.67 91.52 54.39 91.52 63.11 91.48 C 69.65 91.21 76.91 90.66 82.04 86.10 C 87.02 81.56 88.25 74.43 88.49 68.01 C 88.51 57.99 88.51 47.96 88.49 37.93 C 88.22 31.76 87.20 25.02 82.74 20.38 C 78.11 15.82 71.27 14.80 65.06 14.51 C 55.69 14.47 46.32 14.53 36.95 14.49 C 33.41 14.45 29.86 14.81 26.41 15.62 Z"></path>
<path d=" M 26.27 55.36 C 30.49 55.13 34.73 55.22 38.95 55.31 C 42.12 55.33 42.90 60.50 39.80 61.38 C 35.27 61.61 30.71 61.56 26.17 61.42 C 23.12 60.75 23.31 56.00 26.27 55.36 Z"></path>
<path d=" M 49.18 55.38 C 56.13 55.05 63.10 55.37 70.06 55.23 C 71.85 55.38 74.21 54.74 75.41 56.51 C 77.03 58.30 75.53 61.81 72.95 61.49 C 64.95 61.46 56.95 61.61 48.95 61.42 C 45.80 60.86 46.11 55.78 49.18 55.38 Z"></path>
<path d=" M 25.38 71.42 C 26.76 70.64 28.46 71.12 29.97 70.98 C 38.33 71.09 46.69 70.86 55.05 71.08 C 58.36 71.95 57.60 77.54 54.04 77.20 C 45.03 77.29 36.01 77.28 27.00 77.21 C 23.97 77.42 22.75 72.83 25.38 71.42 Z"></path>
<path d=" M 64.06 77.02 C 61.23 76.10 61.70 72.32 63.92 70.95 C 67.25 71.11 70.60 70.83 73.93 71.08 C 76.77 71.88 76.72 76.30 73.91 77.12 C 70.64 77.32 67.32 77.45 64.06 77.02 Z"></path>
</symbol></defs>
<use xlink:href="#subtitle"></use>
</svg>