<svg xmlns:xlink="http://www.w3.org/1999/xlink" xmlns="http://www.w3.org/2000/svg" class="icon" width="100"  height="104" ><defs><symbol viewBox="0 0 100 104" id="microphone">
<path d=" M 44.35 6.61 C 53.15 3.82 63.45 8.17 67.59 16.41 C 70.61 21.79 69.60 28.11 69.74 33.99 C 69.68 39.56 69.88 45.14 69.67 50.70 C 68.83 61.15 58.44 69.49 48.05 68.17 C 38.45 67.42 30.16 58.74 30.25 49.05 C 30.26 41.02 30.24 32.98 30.26 24.95 C 30.26 16.61 36.35 8.84 44.35 6.61 M 46.45 12.56 C 40.98 14.05 36.61 19.25 36.52 24.98 C 36.45 32.64 36.53 40.30 36.49 47.96 C 36.28 52.95 39.08 57.93 43.50 60.27 C 49.55 63.90 58.10 61.49 61.56 55.41 C 63.80 52.06 63.57 47.91 63.51 44.06 C 63.40 37.40 63.65 30.73 63.42 24.07 C 62.77 16.17 54.06 10.16 46.45 12.56 Z"></path>
<path d=" M 46.45 23.51 C 50.27 22.92 54.35 23.18 57.87 24.88 C 59.96 26.64 58.85 30.39 56.06 30.52 C 53.45 30.18 50.85 29.00 48.20 29.66 C 46.24 29.82 44.09 31.23 42.26 29.90 C 40.69 28.71 40.60 26.23 42.13 24.96 C 43.44 24.18 44.95 23.79 46.45 23.51 Z"></path>
<path d=" M 45.30 33.36 C 48.31 32.47 51.71 32.36 54.71 33.37 C 57.08 34.25 57.12 37.94 54.91 39.06 C 51.62 39.19 48.31 39.19 45.02 39.06 C 43.01 37.72 42.87 34.30 45.30 33.36 Z"></path>
<path d=" M 15.11 40.03 C 15.43 36.89 20.81 36.86 21.14 40.01 C 21.54 44.28 20.83 48.63 21.71 52.87 C 23.89 66.18 36.49 76.72 49.98 76.54 C 62.70 76.69 74.75 67.39 77.80 55.04 C 79.27 50.14 78.48 45.01 78.86 39.99 C 79.21 36.85 84.60 36.90 84.89 40.05 C 85.30 47.40 85.23 55.10 82.08 61.92 C 77.18 73.43 65.68 81.59 53.25 82.71 C 53.11 86.38 53.67 90.15 52.82 93.76 C 51.53 95.80 48.49 95.76 47.17 93.78 C 46.79 90.11 47.08 86.41 46.97 82.73 C 35.49 81.74 24.76 74.83 19.26 64.69 C 14.99 57.24 14.54 48.40 15.11 40.03 Z"></path>
</symbol></defs>
<use xlink:href="#microphone"></use>
</svg>